---
---

<svg xmlns="http://www.w3.org/2000/svg" xmlns:xlink="http://www.w3.org/1999/xlink" viewBox="0 0 309.88 59.68">
<defs>
<style>
@font-face {
    font-family: ProductSans;
    src: url("/two02/assets/css/fonts/Product Sans Bold.ttf");
  }
text {
    font-family: ProductSans!important;
}
.cls-1{fill:url(#linear-gradient);}.cls-2{fill:url(#radial-gradient);}.cls-3{fill:url(#linear-gradient-2);}.cls-4{fill:url(#linear-gradient-3);}.cls-5{fill:url(#linear-gradient-4);}.cls-6{fill:url(#linear-gradient-5);}.cls-7{font-size:39.24px;fill:#fff;font-family:ProductSans;font-weight:700;letter-spacing:-0.05em;}.cls-8{letter-spacing:0.01em;}.cls-9{letter-spacing:0.02em;}.cls-10{letter-spacing:0.01em;}.cls-11{letter-spacing:-0.01em;}.cls-12{letter-spacing:-0.05em;}.cls-13{letter-spacing:0.01em;}
</style>
<linearGradient id="linear-gradient" x1="46.52" y1="1021.44" x2="64.08" y2="1050.09" gradientTransform="translate(-1000.42 72.68) rotate(-90)" gradientUnits="userSpaceOnUse">
<stop offset="0" stop-color="#0051d4"/>
<stop offset="1" stop-color="#65e3f7"/>
</linearGradient>
<radialGradient id="radial-gradient" cx="19.65" cy="1065.42" r="20.64" gradientTransform="translate(-1000.42 72.68) rotate(-90)" gradientUnits="userSpaceOnUse">
<stop offset="0" stop-color="#65e3f7"/>
<stop offset="1" stop-color="#0051d4"/>
</radialGradient>
<linearGradient id="linear-gradient-2" x1="52.36" y1="1073.88" x2="11.11" y2="1038.9" xlink:href="#linear-gradient"/>
<linearGradient id="linear-gradient-3" x1="25.41" y1="46.49" x2="2.9" y2="63.55" gradientTransform="matrix(1, 0, 0, 1, 0, 0)" xlink:href="#linear-gradient"/>
<linearGradient id="linear-gradient-4" x1="88" y1="-22.63" x2="-27.2" y2="77.5" gradientTransform="matrix(1, 0, 0, 1, 0, 0)" xlink:href="#linear-gradient"/>
<linearGradient id="linear-gradient-5" x1="9.62" y1="1.86" x2="16.18" y2="12.56" gradientTransform="matrix(1, 0, 0, 1, 0, 0)" xlink:href="#linear-gradient"/>
</defs>
<g id="Layer_2" data-name="Layer 2">
<g id="Layer_1-2" data-name="Layer 1">
<path class="cls-1" d="M27.46,30a12.95,12.95,0,1,1,24.75-6.12l8.64-11.37A24.76,24.76,0,0,0,35.74.26C22.18,14.41,25.29,25.6,27.46,30Z"/>
<path class="cls-2" d="M55,59.68h9.1V48.31H52.53S40.59,57.14,55,59.68Z"/>
<path class="cls-3" d="M59.39,39.29a24.83,24.83,0,0,0,3-23.5L49.63,32.59l-12,15.72-.86,1.13h0a6.38,6.38,0,0,0,5.07,10.24H55c-9.58-4.52-2.45-11.37-2.45-11.37l6.08-8Z"/>
<path class="cls-4" d="M17.69,42.78,2.46,59.68l18.27-.08C24.91,48.81,17.69,42.78,17.69,42.78Z"/>
<path class="cls-5" d="M33.61,48.31h0L41.9,37.46a13.1,13.1,0,0,1-2.6.26A12.92,12.92,0,0,1,30.2,34a13.18,13.18,0,0,1-2.74-4C25.29,25.6,22.18,14.41,35.74.26A24.77,24.77,0,0,0,22.28,42.78s7.22,6,3,16.82l3.73-5.08Z"/>
<path class="cls-6" d="M11.36,17.18c.14-.18.28-.36.43-.53A27.19,27.19,0,0,1,25.47,1c-.12-.13-.23-.26-.36-.39A24.71,24.71,0,0,0,7.92,4.44,24.84,24.84,0,0,0,0,12.89l6.68,8.79A24.94,24.94,0,0,1,11.36,17.18Z"/>
<text class="cls-7" transform="translate(73.13 43.71)">T
<tspan class="cls-8" x="20.8" y="0">w</tspan>
<tspan class="cls-9" x="52.66" y="0">o</tspan>
<tspan class="cls-10" x="75.93" y="0">Z</tspan>
<tspan class="cls-9" x="99.6" y="0">e</tspan>
<tspan class="cls-11" x="122.08" y="0">r</tspan>
<tspan class="cls-9" x="137.55" y="0">o</tspan>
<tspan class="cls-12" x="160.82" y="0">T</tspan>
    <tspan class="cls-13" x="181.61" y="0">w</tspan>
    <tspan class="cls-9" x="213.48" y="0">o</tspan>
    </text>
    </g>
    </g>
    </svg>

